<svg xmlns="http://www.w3.org/2000/svg" viewBox="0 0 48 48" width="48" height="48">
  <rect width="48" height="48" rx="10" fill="#242938"/>
  <svg x="7" y="7" width="34" height="34" viewBox="0 0 48 48" fill="none">
    <mask id="mask_mssql_modern" style="mask-type:luminance" maskUnits="userSpaceOnUse" x="0" y="0" width="48" height="48">
      <path d="M48 0H0V48H48V0Z" fill="white"/>
    </mask>
    <g mask="url(#mask_mssql_modern)">
      <path d="M23.9982 33.6C34.6019 33.6 43.1982 36.8234 43.1982 40.8V26.3998C43.1982 22.4234 34.6019 19.1998 23.9982 19.1998H19.1982V33.6H23.9982Z" fill="url(#paint0_linear_mssql)"/>
      <path d="M43.1988 26.3998C43.1988 30.3763 34.6028 33.5997 23.9988 33.5997C17.5318 33.5997 11.8116 32.4008 8.33267 30.5632C6.44883 29.728 4.79883 30.9936 4.79883 32.7091V40.7997C4.79883 44.7763 13.395 47.9997 23.9988 47.9997C34.6028 47.9997 43.1988 44.7763 43.1988 40.7997V26.3998Z" fill="url(#paint1_radial_mssql)"/>
      <path d="M43.1988 26.3998C43.1988 30.3763 34.6028 33.5997 23.9988 33.5997C17.5318 33.5997 11.8116 32.4008 8.33267 30.5632C6.44883 29.728 4.79883 30.9936 4.79883 32.7091V40.7997C4.79883 44.7763 13.395 47.9997 23.9988 47.9997C34.6028 47.9997 43.1988 44.7763 43.1988 40.7997V26.3998Z" fill="url(#paint2_radial_mssql)"/>
      <path d="M23.9988 0C34.6026 0 43.1989 3.22355 43.1989 7.2V15.3562C43.1989 16.4719 42.0362 18.4313 39.6621 17.4349C36.1826 15.5983 30.4639 14.4 23.9988 14.4C13.395 14.4 4.79883 17.6235 4.79883 21.6V7.2C4.79883 3.22355 13.395 0 23.9988 0Z" fill="url(#paint3_linear_mssql)"/>
      <path d="M23.9988 14.3998C13.395 14.3998 4.79883 11.1763 4.79883 7.19983V21.5998C4.79883 25.5763 13.395 28.8 23.9988 28.8H25.1988C27.1871 28.8 28.7989 27.188 28.7989 25.1998V17.9998C28.7989 16.0116 27.1871 14.3998 25.1988 14.3998H23.9988Z" fill="url(#paint4_radial_mssql)"/>
      <path d="M23.9988 14.3998C13.395 14.3998 4.79883 11.1763 4.79883 7.19983V21.5998C4.79883 25.5763 13.395 28.8 23.9988 28.8H25.1988C27.1871 28.8 28.7989 27.188 28.7989 25.1998V17.9998C28.7989 16.0116 27.1871 14.3998 25.1988 14.3998H23.9988Z" fill="url(#paint5_radial_mssql)"/>
    </g>
    <defs>
      <linearGradient id="paint0_linear_mssql" x1="35.9982" y1="19.1998" x2="15.9334" y2="35.8194" gradientUnits="userSpaceOnUse">
        <stop stop-color="#0094F0"/>
        <stop offset="0.243" stop-color="#0078D4"/>
        <stop offset="0.584" stop-color="#2052CB"/>
        <stop offset="0.83" stop-color="#312A9A"/>
      </linearGradient>
      <radialGradient id="paint1_radial_mssql" cx="0" cy="0" r="1" gradientUnits="userSpaceOnUse" gradientTransform="translate(33.5988 29.5499) rotate(143.591) scale(29.8211 53.0152)">
        <stop stop-color="#3BD5FF"/>
        <stop offset="1" stop-color="#0078D4"/>
      </radialGradient>
      <radialGradient id="paint2_radial_mssql" cx="0" cy="0" r="1" gradientUnits="userSpaceOnUse" gradientTransform="translate(39.5988 27.5997) rotate(146.31) scale(25.96 43.796)">
        <stop stop-color="#DECBFF" stop-opacity="0.9"/>
        <stop offset="1" stop-color="#DECBFF" stop-opacity="0"/>
      </radialGradient>
      <linearGradient id="paint3_linear_mssql" x1="32.3989" y1="1.2" x2="9.66835" y2="25.9489" gradientUnits="userSpaceOnUse">
        <stop stop-color="#0FAFFF"/>
        <stop offset="0.162" stop-color="#0094F0"/>
        <stop offset="0.563" stop-color="#2052CB"/>
        <stop offset="0.764" stop-color="#312A9A"/>
      </linearGradient>
      <radialGradient id="paint4_radial_mssql" cx="0" cy="0" r="1" gradientUnits="userSpaceOnUse" gradientTransform="translate(23.6678 12.1488) rotate(137.53) scale(24.6606 38.4117)">
        <stop stop-color="#3BD5FF"/>
        <stop offset="1" stop-color="#0078D4"/>
      </radialGradient>
      <radialGradient id="paint5_radial_mssql" cx="0" cy="0" r="1" gradientUnits="userSpaceOnUse" gradientTransform="translate(27.5989 10.7998) rotate(149.036) scale(20.9914 33.6005)">
        <stop stop-color="#DECBFF" stop-opacity="0.9"/>
        <stop offset="1" stop-color="#D1D1FF" stop-opacity="0"/>
      </radialGradient>
    </defs>
  </svg>
</svg>
